<svg width="32" height="32" viewBox="0 0 32 32" fill="none" xmlns="http://www.w3.org/2000/svg">
<g filter="url(#filter0_d_2207_183)">
<path d="M12.0274 18.8419C12.0274 18.9387 11.9161 19.0161 11.7758 19.0161C11.6161 19.0306 11.5048 18.9532 11.5048 18.8419C11.5048 18.7452 11.6161 18.6677 11.7565 18.6677C11.9016 18.6532 12.0274 18.7306 12.0274 18.8419ZM10.5226 18.6242C10.4887 18.721 10.5855 18.8323 10.7306 18.8613C10.8565 18.9097 11.0016 18.8613 11.0306 18.7645C11.0597 18.6677 10.9677 18.5565 10.8226 18.5129C10.6968 18.479 10.5565 18.5274 10.5226 18.6242ZM12.6613 18.5419C12.521 18.5758 12.4242 18.6677 12.4387 18.779C12.4532 18.8758 12.579 18.9387 12.7242 18.9048C12.8645 18.871 12.9613 18.779 12.9468 18.6823C12.9323 18.5903 12.8016 18.5274 12.6613 18.5419ZM15.8452 0C9.13387 0 4 5.09516 4 11.8065C4 17.1726 7.37742 21.7645 12.2016 23.3806C12.821 23.4919 13.0387 23.1097 13.0387 22.7952C13.0387 22.4952 13.0242 20.8403 13.0242 19.8242C13.0242 19.8242 9.6371 20.55 8.92581 18.3823C8.92581 18.3823 8.37419 16.9742 7.58065 16.6113C7.58065 16.6113 6.47258 15.8516 7.65806 15.8661C7.65806 15.8661 8.8629 15.9629 9.52581 17.1145C10.5855 18.9823 12.3613 18.4452 13.0532 18.1258C13.1645 17.3516 13.479 16.8145 13.8274 16.4952C11.1226 16.1952 8.39355 15.8032 8.39355 11.1484C8.39355 9.81774 8.76129 9.15 9.53548 8.29839C9.40968 7.98387 8.99839 6.6871 9.66129 5.0129C10.6726 4.69839 13 6.31936 13 6.31936C13.9677 6.04839 15.0081 5.90806 16.0387 5.90806C17.0694 5.90806 18.1097 6.04839 19.0774 6.31936C19.0774 6.31936 21.4048 4.69355 22.4161 5.0129C23.079 6.69194 22.6677 7.98387 22.5419 8.29839C23.3161 9.15484 23.7903 9.82258 23.7903 11.1484C23.7903 15.8177 20.9403 16.1903 18.2355 16.4952C18.6806 16.8774 19.0581 17.6032 19.0581 18.7403C19.0581 20.371 19.0435 22.3887 19.0435 22.7855C19.0435 23.1 19.2661 23.4823 19.8806 23.371C24.7194 21.7645 28 17.1726 28 11.8065C28 5.09516 22.5565 0 15.8452 0ZM8.70323 16.6887C8.64032 16.7371 8.65484 16.8484 8.7371 16.9403C8.81452 17.0177 8.92581 17.0516 8.98871 16.9887C9.05161 16.9403 9.0371 16.829 8.95484 16.7371C8.87742 16.6597 8.76613 16.6258 8.70323 16.6887ZM8.18064 16.2968C8.14677 16.3597 8.19516 16.4371 8.29194 16.4855C8.36935 16.5339 8.46613 16.5194 8.5 16.4516C8.53387 16.3887 8.48548 16.3113 8.38871 16.2629C8.29194 16.2339 8.21452 16.2484 8.18064 16.2968ZM9.74839 18.0194C9.67097 18.0823 9.7 18.2274 9.81129 18.3194C9.92258 18.4306 10.0629 18.4452 10.1258 18.3677C10.1887 18.3048 10.1597 18.1597 10.0629 18.0677C9.95645 17.9565 9.81129 17.9419 9.74839 18.0194ZM9.19677 17.3081C9.11935 17.3565 9.11935 17.4823 9.19677 17.5935C9.27419 17.7048 9.40484 17.7532 9.46774 17.7048C9.54516 17.6419 9.54516 17.5161 9.46774 17.4048C9.4 17.2935 9.27419 17.2452 9.19677 17.3081Z" fill="black"/>
</g>
<defs>
<filter id="filter0_d_2207_183" x="0" y="0" width="32" height="31.4004" filterUnits="userSpaceOnUse" color-interpolation-filters="sRGB">
<feFlood flood-opacity="0" result="BackgroundImageFix"/>
<feColorMatrix in="SourceAlpha" type="matrix" values="0 0 0 0 0 0 0 0 0 0 0 0 0 0 0 0 0 0 127 0" result="hardAlpha"/>
<feOffset dy="4"/>
<feGaussianBlur stdDeviation="2"/>
<feComposite in2="hardAlpha" operator="out"/>
<feColorMatrix type="matrix" values="0 0 0 0 0 0 0 0 0 0 0 0 0 0 0 0 0 0 0.25 0"/>
<feBlend mode="normal" in2="BackgroundImageFix" result="effect1_dropShadow_2207_183"/>
<feBlend mode="normal" in="SourceGraphic" in2="effect1_dropShadow_2207_183" result="shape"/>
</filter>
</defs>
</svg>
